<svg width="352" height="100" viewBox="0 0 352 100" fill="none" xmlns="http://www.w3.org/2000/svg">
<path d="M247.179 23.4604L245.896 25.0359V74.9667L247.179 76.5543L288.833 84.9512L290.748 83.3696V16.6356L288.833 15.0575L247.179 23.4604ZM287.535 18.5974V81.3854L249.125 73.6453V26.3668L287.535 18.5974Z" fill="#AD608E"/>
<path d="M1.62312 23.4405L0 25.0359V74.9667L1.62312 76.5742H51.4805L53.1122 74.9667V25.0359L51.4805 23.4405H1.62312ZM49.8807 73.3679H3.22293V26.6554H49.8807V73.3679Z" fill="#5B56A6"/>
<path d="M118.7 6.96828L116.384 8.41673V91.5919L118.7 93.0144L151.92 76.4273L152.807 74.9667V25.0359L151.92 23.6082L118.7 6.96828ZM149.583 73.972L119.607 88.9698V11.0267L149.583 26.0384V73.972Z" fill="#D35972"/>
<path d="M350.409 23.4405H300.514L298.916 25.0359V74.9667L300.514 76.5742H350.409L352 74.9667V25.0359L350.409 23.4405ZM348.774 73.3679H302.131V26.6554H348.774V73.3679Z" fill="#5B56A6"/>
<path d="M200.082 23.6082L199.184 25.0359V74.9667L200.085 76.4273L233.296 93.0144L235.625 91.5919V8.41673L233.296 6.96828L200.082 23.6082ZM232.401 11.0267V88.969L202.422 73.9711V26.0392L232.401 11.0267Z" fill="#D35972"/>
<path d="M174.407 100H177.633V0H174.407V100Z" fill="#F25A55"/>
<path d="M102.892 48.2655V73.6713L64.4723 81.3975V18.6146L102.892 26.372V32.9617H106.107V25.0627L104.815 23.4725L63.1877 15.0583L61.252 16.6364V83.3688L63.1877 84.965L104.815 76.569L106.107 74.9728V39.1461L102.892 48.2655Z" fill="#AD608E"/>
<path d="M174.407 38.1341V32.5339H168.316L156.325 66.397H163.607L168.228 53.2815H174.407V47.8403C173.176 47.8489 171.4 47.829 170.149 47.829L173.482 38.1626L174.407 38.1341ZM180.273 32.5339H177.662V38.1341C180.675 38.1341 184.349 38.3277 182.694 42.9453C181.756 45.5881 179.396 46.97 177.662 47.3373V52.9401C183.416 51.7146 188.627 48.0771 190.438 42.9453C193.468 34.3574 187.771 32.584 180.273 32.5339ZM8.39619 66.8274L32.61 32.9617H41.241L41.2151 66.8274H34.0492L34.1381 59.6431H20.409L15.3316 66.8274H8.39619ZM34.1727 54.0221L34.4326 39.5765H34.335L24.2717 54.0221H34.1727ZM130.86 66.8274H123.6L135.578 32.9617H142.847L130.86 66.8274ZM203.58 66.8274L215.55 32.9617H222.828L212.843 61.2013H228.831L226.846 66.8274H203.58ZM262.346 32.9617H285.035L283.049 38.5904H267.631L264.818 46.5154H279.255L277.265 52.1364H262.825L259.625 61.2013H275.563L273.588 66.8274H250.369L262.346 32.9617ZM311.238 66.8274H303.439L321.561 49.2801L316.227 32.9617H325.175L327.968 44.4603L339.33 32.9608H347.115L330.203 49.2386L335.797 66.8265H326.884L323.86 54.0671L311.238 66.8274ZM86.0123 66.8274L82.6064 38.6916L82.4769 38.7849L72.5568 66.8274H65.7639L77.7301 32.9617H88.5109L91.9764 59.6024L92.1033 59.5126L101.497 32.9617H108.293L96.3096 66.8274H86.0123Z" fill="#F0F0F0"/>
</svg>
