<svg width="290" height="100" viewBox="0 0 290 100" fill="none" xmlns="http://www.w3.org/2000/svg">
<path d="M36.6077 49.7382H54.4932C55.0162 49.7382 55.33 49.3194 55.33 48.9005V44.8168C55.33 44.2932 54.9116 43.9791 54.4932 43.9791H44.2431C43.4063 43.9791 42.7787 43.3508 42.7787 42.5131V16.4398C42.7787 15.9162 42.3604 15.6021 41.942 15.6021H36.7123C36.1894 15.6021 35.8756 16.0209 35.8756 16.4398V48.7958C35.6664 49.3194 36.0848 49.7382 36.6077 49.7382ZM118.818 15.6021H113.484C113.066 15.6021 112.752 15.8115 112.647 16.2304L105.326 38.7435C105.221 39.0576 105.012 39.1623 104.698 39.1623C104.384 39.1623 104.175 38.9529 104.071 38.6387L96.9582 16.1257C96.8536 15.7068 96.5398 15.4974 96.1214 15.4974H90.7872C90.4734 15.4974 90.2642 15.6021 90.055 15.8115C89.8458 16.0209 89.8458 16.3351 89.9504 16.6492L100.41 49.0052C100.514 49.4241 100.828 49.6335 101.247 49.6335H108.15C108.568 49.6335 108.882 49.4241 108.986 49.0052L119.76 16.6492C119.864 16.3351 119.76 16.1257 119.655 15.8115C119.341 15.7068 119.027 15.6021 118.818 15.6021ZM123.943 49.7382H147.895C148.418 49.7382 148.732 49.3194 148.732 48.9005V44.8168C148.732 44.2932 148.314 43.9791 147.895 43.9791H131.579C130.742 43.9791 130.114 43.3508 130.114 42.5131V36.3351C130.114 35.4974 130.742 34.8691 131.579 34.8691H146.013C146.536 34.8691 146.849 34.4503 146.849 34.0314V30.4712C146.849 29.9476 146.431 29.6335 146.013 29.6335C146.013 29.6335 132.415 29.6335 131.579 29.6335C130.742 29.6335 130.114 29.0052 130.114 28.1675V23.0366C130.114 22.199 130.742 21.5707 131.579 21.5707H147.581C148.104 21.5707 148.418 21.1518 148.418 20.733V16.6492C148.418 16.1257 148 15.8115 147.581 15.8115H123.943C123.42 15.8115 123.107 16.2304 123.107 16.6492V49.0052C123.002 49.3194 123.42 49.7382 123.943 49.7382ZM180.947 48.377C180.738 47.644 180.633 46.911 180.528 46.0733C180.424 45.2356 180.424 44.5026 180.319 43.7696C180.319 43.0367 180.215 42.4084 180.215 41.7801C180.11 40.9424 180.005 40 179.901 39.1623C179.692 38.3246 179.482 37.4869 179.064 36.8586C178.646 36.1257 178.227 35.6021 177.6 35.0785C177.286 34.8691 176.763 34.4503 175.926 34.1361C175.717 34.0314 175.613 33.822 175.613 33.6126C175.613 33.4031 175.717 33.1937 175.926 33.089C177.495 32.356 178.646 31.3089 179.378 30.0524C180.215 28.5864 180.633 26.911 180.633 24.9215C180.633 23.6649 180.424 22.4084 179.901 21.2565C179.482 20.1047 178.75 19.1623 177.914 18.3246C177.077 17.4869 176.031 16.7539 174.776 16.3351C173.521 15.8115 172.161 15.6021 170.697 15.6021H153.125C152.602 15.6021 152.288 16.0209 152.288 16.4398V48.7958C152.288 49.3194 152.707 49.6335 153.125 49.6335H158.355C158.878 49.6335 159.191 49.2147 159.191 48.7958V37.6963C159.191 36.8586 159.819 36.2304 160.656 36.2304H167.14C169.128 36.2304 170.592 36.6492 171.533 37.5916C172.37 38.4293 172.998 39.8953 173.311 41.7801C173.521 43.1414 173.625 44.712 173.73 46.178C173.834 47.3298 173.939 48.2723 174.253 49.2147C174.357 49.6335 174.671 49.8429 175.09 49.8429H180.005C180.319 49.8429 180.528 49.7382 180.738 49.5288C180.947 49.3194 180.947 49.0052 180.842 48.7958C180.947 48.5864 180.947 48.4817 180.947 48.377ZM172.266 30.0524C171.324 30.8901 169.964 31.3089 168.082 31.3089H160.865C160.028 31.3089 159.401 30.6806 159.401 29.8429V22.4084C159.401 21.5707 160.028 20.9424 160.865 20.9424H168.082C169.86 20.9424 171.324 21.3613 172.266 22.199C173.207 23.0366 173.73 24.2932 173.73 26.0733C173.625 27.8534 173.207 29.2147 172.266 30.0524ZM9.7272 49.2147C11.8191 50.1571 14.2247 50.5759 16.735 50.5759C18.8268 50.5759 20.8141 50.2618 22.4876 49.6335C24.2657 49.0052 25.73 48.0628 27.0897 46.911C28.4494 45.7592 29.3908 44.1885 30.2275 42.5131C30.8551 41.1518 31.2735 39.6859 31.5872 38.1152C31.5872 37.801 31.5872 37.5916 31.3781 37.3822C31.1689 37.1728 30.9597 37.0681 30.7505 37.0681H25.73C25.3116 37.0681 24.8933 37.3822 24.8933 37.801C24.4749 39.7906 23.7427 41.3613 22.5922 42.6178C21.2325 44.0838 19.3498 44.8168 16.9441 44.8168C15.1661 44.8168 13.7017 44.5026 12.4466 43.7696C10.9823 43.0367 10.041 42.0942 9.20423 40.9424C8.47207 39.7906 7.84451 38.534 7.53073 37.0681C7.21695 35.7068 7.00776 34.2408 7.00776 32.7749C7.00776 31.2042 7.21695 29.7382 7.53073 28.2723C7.84451 26.8063 8.47207 25.5497 9.20423 24.3979C9.93638 23.2461 10.9823 22.3037 12.2374 21.6754C13.4926 20.9424 14.9569 20.6283 16.735 20.6283C17.6763 20.6283 18.6176 20.8377 19.559 21.1518C20.3957 21.466 21.2325 21.8848 21.9646 22.5131C22.6968 23.0366 23.2198 23.7696 23.7427 24.5026C24.0565 25.0262 24.2657 25.5497 24.4749 26.178C24.5795 26.5969 24.8933 26.8063 25.3116 26.8063H30.3321C30.6459 26.8063 30.8551 26.7016 31.0643 26.4921C31.2735 26.2827 31.2735 25.9686 31.2735 25.7592C30.9597 24.3979 30.5413 23.0366 29.9137 21.8848C29.077 20.4188 27.9265 19.0576 26.6713 18.0105C25.3116 16.9634 23.8473 16.2304 22.1738 15.6021C20.5003 14.9738 18.6176 14.7644 16.735 14.7644C14.1201 14.7644 11.7145 15.1832 9.7272 16.1257C7.63533 17.0681 5.85724 18.3246 4.49752 19.8953C3.03321 21.466 1.98728 23.4555 1.15053 25.6545C0.418374 27.8534 0 30.2618 0 32.7749C0 35.288 0.418374 37.5916 1.15053 39.7906C1.88268 41.8848 3.03321 43.8743 4.49752 45.445C5.85724 47.0157 7.63533 48.2723 9.7272 49.2147ZM89.4275 32.7749C89.4275 30.2618 89.0091 27.8534 88.2769 25.6545C87.5448 23.4555 86.3942 21.5707 84.9299 19.8953C83.4656 18.3246 81.7921 16.9634 79.7003 16.0209C77.6084 15.0785 75.3073 14.6597 72.5879 14.6597C69.9731 14.6597 67.5674 15.0785 65.5801 16.0209C63.4883 16.9634 61.7102 18.2199 60.3505 19.7906C58.8862 21.3613 57.8402 23.3508 57.0035 25.5497C56.2713 27.7487 55.8529 30.1571 55.8529 32.6702C55.8529 35.1832 56.2713 37.4869 57.0035 39.6859C57.7356 41.7801 58.8862 43.7696 60.3505 45.3403C61.8148 46.911 63.5929 48.1675 65.5801 49.1099C67.672 50.0524 70.0777 50.4712 72.5879 50.4712C75.2027 50.4712 77.6084 50.0524 79.7003 49.1099C81.7921 48.1675 83.5702 46.911 84.9299 45.3403C86.3942 43.7696 87.4402 41.8848 88.2769 39.6859C89.0091 37.6963 89.4275 35.288 89.4275 32.7749ZM81.7921 37.1728C81.4783 38.534 80.8508 39.8953 80.1186 41.0471C79.3865 42.199 78.3405 43.1414 77.0854 43.7696C75.8303 44.5026 74.366 44.8168 72.5879 44.8168C70.8098 44.8168 69.3455 44.5026 68.0904 43.7696C66.8353 43.0367 65.8939 42.0942 65.0572 40.9424C64.325 39.7906 63.6974 38.534 63.3837 37.0681C63.0699 35.7068 62.8607 34.2408 62.8607 32.7749C62.8607 31.2042 63.0699 29.7382 63.3837 28.2723C63.6974 26.8063 64.325 25.445 65.0572 24.3979C65.7893 23.2461 66.8353 22.3037 68.0904 21.6754C69.3455 20.9424 70.8098 20.6283 72.5879 20.6283C74.366 20.6283 75.8303 20.9424 77.0854 21.6754C78.3405 22.4084 79.3865 23.2461 80.1186 24.3979C80.8508 25.5497 81.4783 26.911 81.7921 28.2723C82.1059 29.7382 82.3151 31.2042 82.3151 32.7749C82.3151 34.3456 82.2105 35.7068 81.7921 37.1728ZM44.766 61.466H39.7455C39.3272 61.466 39.0134 61.7801 38.9088 62.199L33.7837 83.5602C33.6791 83.8743 33.4699 84.0838 33.0515 84.0838C32.7378 84.0838 32.424 83.8743 32.3194 83.5602L26.9851 62.199C26.8805 61.7801 26.5668 61.5707 26.1484 61.5707H20.9187C20.5003 61.5707 20.1866 61.8848 20.082 62.199L14.6431 83.2461C14.5385 83.5602 14.3293 83.7696 13.9109 83.7696C13.5972 83.7696 13.2834 83.5602 13.1788 83.2461L8.26289 62.199C8.15829 61.7801 7.84451 61.466 7.42614 61.466H2.30106C1.98728 61.466 1.77809 61.5707 1.5689 61.7801C1.35972 61.9895 1.35972 62.3037 1.46431 62.5131L10.041 94.8691C10.1456 95.288 10.4594 95.4974 10.8777 95.4974H16.735C17.1533 95.4974 17.4671 95.1832 17.5717 94.8691L22.8014 73.6126C22.906 73.2984 23.1152 73.089 23.4289 73.089C23.7427 73.089 24.0565 73.2984 24.0565 73.6126L29.3908 94.8691C29.4954 95.288 29.8092 95.4974 30.2275 95.4974H35.9802C36.3985 95.4974 36.7123 95.1832 36.8169 94.8691L45.4982 62.5131C45.6028 62.199 45.4982 61.9895 45.3936 61.7801C45.3936 61.6754 45.0798 61.466 44.766 61.466ZM113.902 94.2408C113.693 93.5079 113.589 92.7749 113.484 91.9372C113.379 91.2042 113.379 90.3665 113.275 89.6335C113.275 88.9005 113.17 88.2723 113.17 87.644C113.066 86.8063 112.961 85.8639 112.856 85.0262C112.647 84.1885 112.438 83.3508 112.02 82.7225C111.601 81.9895 111.183 81.466 110.555 80.9424C110.242 80.733 109.719 80.3141 108.882 80C108.673 79.8953 108.568 79.6859 108.568 79.4764C108.568 79.267 108.673 79.0576 108.882 78.9529C110.451 78.2199 111.601 77.1728 112.333 75.9162C113.17 74.4503 113.589 72.7749 113.589 70.7853C113.589 69.5288 113.379 68.2723 112.856 67.1204C112.438 65.9686 111.706 65.0262 110.869 64.1885C110.032 63.3508 108.986 62.6178 107.731 62.199C106.476 61.6754 105.116 61.466 103.652 61.466H86.1851C85.6621 61.466 85.3483 61.8848 85.3483 62.3037V94.6597C85.3483 95.1833 85.7667 95.4974 86.1851 95.4974H91.4147C91.9377 95.4974 92.2515 95.0785 92.2515 94.6597V83.5602C92.2515 82.7225 92.879 82.0942 93.7158 82.0942H100.201C102.188 82.0942 103.652 82.5131 104.594 83.4555C105.43 84.2932 106.058 85.7592 106.372 87.644C106.581 89.0052 106.685 90.5759 106.79 92.0419C106.895 93.1937 106.999 94.1361 107.313 95.0785C107.418 95.4974 107.731 95.7068 108.15 95.7068H113.066C113.379 95.7068 113.589 95.6021 113.798 95.3927C114.007 95.1832 114.007 94.8691 113.902 94.6597V94.2408ZM105.221 76.0209C104.28 76.8586 102.92 77.2775 101.037 77.2775H93.8204C92.9836 77.2775 92.3561 76.6492 92.3561 75.8115V68.377C92.3561 67.5393 92.9836 66.911 93.8204 66.911H101.037C102.815 66.911 104.28 67.3298 105.221 68.1675C106.162 69.0052 106.685 70.2618 106.685 72.0419C106.581 73.822 106.162 75.1832 105.221 76.0209ZM137.227 75.9162C136.808 75.288 136.913 74.555 137.331 74.0314L148.209 63.0366C148.523 62.7225 148.523 62.3037 148.418 62.0942C148.314 61.8848 148 61.5707 147.581 61.5707H141.829C141.306 61.5707 140.783 61.7801 140.469 62.199L128.964 74.4503C128.755 74.6597 128.441 74.7644 128.127 74.7644C127.604 74.7644 126.977 74.3456 126.977 73.6126V62.4084C126.977 61.8848 126.558 61.5707 126.14 61.5707H120.91C120.387 61.5707 120.073 61.9895 120.073 62.4084V94.7644C120.073 95.288 120.492 95.6021 120.91 95.6021H126.14C126.663 95.6021 126.977 95.1833 126.977 94.7644V85.2356C126.977 84.8168 127.081 84.5026 127.395 84.1885L130.428 81.1518C130.742 80.8377 131.056 80.733 131.474 80.733C131.997 80.733 132.415 80.9424 132.729 81.3613L141.62 94.6597C142.038 95.288 142.77 95.7068 143.607 95.7068H149.464C149.778 95.7068 150.092 95.4974 150.301 95.1833C150.405 94.8691 150.405 94.555 150.196 94.2408L137.227 75.9162ZM76.3533 65.8639C74.889 64.2932 73.1109 62.9319 71.1236 61.9895C69.0317 61.0471 66.7307 60.6283 64.0112 60.6283C61.3964 60.6283 58.9907 61.0471 57.0035 61.9895C54.9116 62.9319 53.1335 64.1885 51.7738 65.7592C50.3095 67.3298 49.2635 69.3194 48.4268 71.5183C47.6946 73.7173 47.2763 76.1256 47.2763 78.6387C47.2763 81.1518 47.6946 83.4555 48.4268 85.6544C49.1589 87.7487 50.3095 89.7382 51.7738 91.3089C53.2381 92.8796 55.0162 94.1361 57.0035 95.0785C59.0953 96.0209 61.501 96.4398 64.0112 96.4398C66.6261 96.4398 69.0317 96.0209 71.1236 95.0785C73.2155 94.1361 74.9935 92.8796 76.3533 91.3089C77.8176 89.7382 78.8635 87.8534 79.7003 85.6544C80.4324 83.5602 80.8508 81.1518 80.8508 78.6387C80.8508 76.1256 80.4324 73.7173 79.7003 71.5183C78.8635 69.4241 77.8176 67.5393 76.3533 65.8639ZM73.2155 83.0366C72.9017 84.3979 72.2741 85.7592 71.542 86.8063C70.8098 87.9581 69.7639 88.9005 68.5088 89.5288C67.2536 90.2618 65.7893 90.5759 64.0112 90.5759C62.2331 90.5759 60.7688 90.2618 59.5137 89.5288C58.2586 88.7958 57.2127 87.9581 56.4805 86.8063C55.7483 85.6545 55.1208 84.3979 54.807 83.0366C54.4932 81.6754 54.284 80.2094 54.284 78.7435C54.284 77.1728 54.4932 75.7068 54.807 74.2408C55.1208 72.7749 55.7483 71.4136 56.4805 70.3665C57.2127 69.2147 58.2586 68.2723 59.5137 67.644C60.7688 66.911 62.2331 66.5969 64.0112 66.5969C65.7893 66.5969 67.2536 66.911 68.5088 67.644C69.7639 68.377 70.8098 69.2147 71.542 70.3665C72.2741 71.5183 72.9017 72.8796 73.2155 74.2408C73.5292 75.7068 73.7384 77.1728 73.7384 78.7435C73.7384 80.2094 73.6338 81.6754 73.2155 83.0366ZM176.658 78.1152C175.508 77.3822 174.462 76.8586 173.311 76.5445C172.161 76.2304 171.22 76.021 170.592 75.8115C168.396 75.288 166.617 74.7644 165.362 74.4503C164.003 74.1361 162.957 73.7173 162.12 73.4031C161.283 72.9843 160.76 72.5654 160.446 72.1466C160.133 71.7278 160.028 71.0995 160.028 70.3665C160.028 69.5288 160.237 68.9005 160.551 68.377C160.865 67.8534 161.388 67.4346 161.911 67.1204C162.434 66.8063 163.061 66.4921 163.689 66.3874C164.316 66.2827 164.944 66.178 165.572 66.178C166.513 66.178 167.454 66.2827 168.186 66.3874C169.023 66.5969 169.755 66.8063 170.383 67.2251C171.01 67.644 171.533 68.1675 171.952 68.9005C172.161 69.4241 172.37 69.9476 172.475 70.5759C172.579 70.9948 172.893 71.3089 173.311 71.3089H178.437C178.646 71.3089 178.959 71.2042 179.064 70.9948C179.273 70.7853 179.273 70.5759 179.273 70.2618C179.169 68.9005 178.75 67.644 178.227 66.5969C177.495 65.2356 176.449 64.0838 175.194 63.2461C173.939 62.4084 172.475 61.6754 170.801 61.3613C169.128 60.9424 167.454 60.733 165.676 60.733C164.107 60.733 162.643 60.9424 161.074 61.3613C159.505 61.7801 158.145 62.4084 156.995 63.2461C155.844 64.0838 154.798 65.1309 154.066 66.4921C153.334 67.7487 152.916 69.3194 152.916 70.9948C152.916 72.5654 153.229 73.822 153.752 74.9738C154.38 76.0209 155.112 76.9633 156.054 77.6963C156.995 78.4293 158.041 79.0576 159.296 79.4764C160.551 79.8953 161.806 80.3141 163.061 80.6283L166.827 81.5707C168.082 81.8848 169.232 82.199 170.174 82.6178C171.22 83.0367 172.056 83.5602 172.579 84.1885C173.207 84.8168 173.521 85.6544 173.521 86.7016C173.521 87.644 173.311 88.4817 172.788 89.0052C172.266 89.6335 171.743 90.0524 171.01 90.4712C170.278 90.7853 169.546 90.9948 168.709 91.2042C167.873 91.3089 167.14 91.4136 166.513 91.4136C165.467 91.4136 164.526 91.3089 163.48 90.9948C162.538 90.7853 161.597 90.3665 160.969 89.8429C160.237 89.3194 159.61 88.5864 159.191 87.7487C158.878 87.1204 158.668 86.4921 158.564 85.7592C158.459 85.3403 158.145 84.9215 157.727 84.9215H152.707C152.497 84.9215 152.184 85.0262 152.079 85.2356C151.87 85.445 151.87 85.6544 151.87 85.8639C151.974 87.4346 152.393 88.7958 153.02 90.0524C153.857 91.5183 154.903 92.7749 156.263 93.822C157.622 94.7644 159.191 95.4974 160.969 96.0209C162.747 96.4398 164.63 96.7539 166.513 96.7539C168.814 96.7539 170.906 96.4398 172.684 95.9162C174.462 95.3927 175.926 94.6597 177.077 93.6126C178.227 92.6702 179.169 91.5183 179.692 90.1571C180.319 88.7958 180.633 87.4346 180.633 85.8639C180.633 83.9791 180.215 82.4084 179.482 81.2565C178.646 79.7906 177.704 78.8482 176.658 78.1152ZM289.829 21.3613C289.306 18.4293 288.051 15.7068 286.168 12.8796C284.076 9.73822 281.357 7.01571 278.219 4.60733C276.545 3.35079 274.767 2.30366 272.989 1.57068C270.583 0.52356 268.073 0 265.563 0C264.622 0 263.785 0.104712 262.844 0.209424C260.542 0.52356 258.346 1.36126 256.045 2.51309C253.744 3.76963 251.652 5.34031 249.56 7.32984C244.958 11.7277 241.506 16.7539 239.205 22.3037C239.101 22.6178 238.996 22.9319 238.787 23.1414C238.682 23.2461 238.682 23.3508 238.578 23.4555C238.473 23.3508 238.369 23.2461 238.159 23.1414C237.95 22.8272 237.741 22.6178 237.532 22.3037L237.427 22.199C235.858 19.7906 233.976 17.4869 231.884 15.3927C230.524 14.0314 229.164 12.7749 227.805 11.7277C226.027 10.3665 224.144 9.31937 222.261 8.48168C219.856 7.43456 217.345 6.911 214.835 6.911C212.534 6.911 210.233 7.32984 207.932 8.27225C206.468 8.90052 205.003 9.63351 203.644 10.4712C200.087 12.8796 196.95 15.9162 194.335 19.4764C193.289 20.8377 192.452 22.4084 191.824 23.9791C190.988 25.9686 190.465 28.0628 190.256 30.0524C190.046 33.2984 190.674 36.5445 192.138 39.7906C193.184 42.0942 194.649 44.2932 196.636 46.4921C198.205 48.2723 200.087 50.0524 202.284 51.8325L202.598 52.1466C202.807 52.356 203.016 52.4607 203.225 52.6702C203.434 52.8796 203.644 52.9843 203.748 53.1937C203.853 53.4031 203.853 53.4031 203.748 53.6126L203.225 54.1361C202.911 54.3455 202.702 54.555 202.388 54.7644C202.179 54.9738 201.97 55.0785 201.761 55.288C199.251 57.2775 197.263 59.267 195.59 61.3613C193.707 63.6649 192.452 65.8639 191.511 68.1675C189.628 72.9843 189.628 77.801 191.615 82.6178C192.243 84.0838 193.08 85.5497 194.021 87.0157C196.217 90.1571 198.937 92.9843 202.075 95.288C203.644 96.5445 205.422 97.4869 207.2 98.2199C209.187 99.0576 211.279 99.5811 213.266 99.7906C213.789 99.7906 214.208 99.8953 214.626 99.8953C217.241 99.8953 219.856 99.3717 222.47 98.2199C224.771 97.1728 226.863 95.8115 229.06 94.0314C231.152 92.2513 233.139 90.1571 235.126 87.644L235.335 87.3298C235.545 87.1204 235.649 86.911 235.858 86.7016L236.277 86.2827C236.381 86.178 236.486 86.178 236.486 86.178C236.591 86.178 236.591 86.178 236.695 86.2827L237.113 86.7016C237.218 86.8063 237.323 87.0157 237.427 87.1204C237.532 87.2251 237.636 87.4346 237.741 87.5393L238.369 88.377C238.996 89.11 239.519 89.8429 240.147 90.4712C241.82 92.356 243.703 94.0314 245.586 95.4974C247.887 97.1728 250.188 98.4293 252.593 99.1623C254.476 99.7906 256.359 100 258.137 100C259.81 100 261.484 99.7906 263.157 99.267C265.249 98.6387 267.341 97.6963 269.328 96.4398C272.884 94.0314 276.022 90.9948 278.637 87.3298C279.474 86.178 280.101 85.0262 280.729 83.6649C281.775 81.3613 282.402 79.0576 282.612 76.7539C282.821 73.6126 282.298 70.4712 280.938 67.4346C279.892 65.0262 278.323 62.7225 276.336 60.4188C273.93 57.5916 271.002 55.0785 267.655 52.8796L267.341 52.6702C267.027 52.4607 266.713 52.2513 266.504 52.0419C266.4 51.9372 266.19 51.8325 266.086 51.623C266.19 51.5183 266.295 51.4136 266.4 51.4136C266.818 51.2042 267.132 50.9948 267.55 50.8901C270.165 49.7382 272.675 48.377 274.976 46.8063C278.533 44.2932 281.566 41.5707 284.076 38.534C285.645 36.5445 286.9 34.6597 287.841 32.5654C288.992 29.9476 289.619 27.3298 289.619 24.6073C290.142 23.5602 290.038 22.4084 289.829 21.3613ZM271.525 65.2356C272.675 66.4921 273.617 67.7487 274.349 69.1099C275.29 70.6806 275.813 72.2513 276.022 73.7173C276.127 74.1361 276.127 74.555 276.127 74.8691V75.3927C276.127 76.8586 275.813 78.4293 275.186 79.7906C274.663 81.1518 273.93 82.4084 272.989 83.6649C271.316 85.8639 269.433 87.8534 267.132 89.5288C265.772 90.5759 264.412 91.3089 263.053 91.8325C261.588 92.4607 260.019 92.7749 258.555 92.7749C257.091 92.7749 255.731 92.4607 254.267 91.9372C252.907 91.4136 251.547 90.6806 250.188 89.6335C249.142 88.9005 248.2 88.0628 247.259 87.2251C244.226 84.1885 241.716 80.9424 239.833 77.3822C239.833 77.3822 239.101 75.9162 238.892 75.6021C238.682 75.288 238.578 74.9738 238.369 74.7644C238.264 74.555 238.055 74.3456 237.846 74.1361C237.323 73.7173 236.904 73.6126 236.591 73.6126C236.277 73.6126 235.754 73.7173 235.335 74.2408C235.126 74.4503 235.022 74.6597 234.812 74.9738C234.603 75.288 234.499 75.6021 234.289 75.9162L233.871 76.7539C233.662 77.1728 233.348 77.6963 233.139 78.1152C231.256 81.6754 228.746 84.9215 225.608 87.8534C224.353 89.11 222.993 90.0524 221.634 90.8901C220.797 91.4136 219.856 91.8325 219.019 92.1466C217.659 92.6702 216.195 92.9843 214.835 92.9843C213.371 92.9843 212.011 92.6702 210.547 92.1466C209.396 91.7278 208.35 91.2042 207.409 90.4712C204.48 88.4817 201.865 85.9686 199.878 82.9319C199.251 81.9895 198.728 80.9424 198.309 79.8953C197.159 76.9633 197.159 74.1361 198.309 71.2042C198.832 69.8429 199.669 68.377 200.715 67.0157C201.656 65.7592 202.598 64.6073 203.853 63.4555C206.677 60.733 209.815 58.4293 213.057 56.7539L213.371 56.6492C213.998 56.3351 214.521 56.0209 215.149 55.7068C215.567 55.4974 215.881 55.288 216.195 55.0785C216.822 54.555 216.927 54.0314 216.927 53.7173C216.927 53.4031 216.822 52.8796 216.195 52.356C215.881 52.1466 215.567 51.9372 215.149 51.7277C214.626 51.4136 213.998 51.0995 213.475 50.8901L213.057 50.6806C209.501 48.9005 206.258 46.3874 203.33 43.4555C201.761 41.8848 200.61 40.4188 199.669 38.8482C199.041 37.9058 198.623 36.9633 198.309 35.9162C197.368 33.1937 197.368 30.4712 198.414 27.7487C198.832 26.5969 199.46 25.445 200.192 24.3979C202.179 21.5707 204.585 19.1623 207.409 17.1728C208.35 16.4398 209.501 15.9162 210.547 15.4974C212.011 14.8691 213.58 14.555 215.044 14.555C216.509 14.555 217.973 14.8691 219.437 15.3927C220.797 15.9162 222.052 16.6492 223.307 17.5916C224.458 18.4293 225.713 19.4764 226.863 20.6283C229.897 23.7696 232.198 26.911 233.976 30.4712C235.022 32.5654 235.858 34.8691 236.381 37.0681L236.486 37.5916C236.591 38.1152 236.8 38.7435 236.904 39.267C237.427 41.3613 238.264 43.2461 239.31 45.0262C241.506 48.6911 244.749 51.3089 248.828 52.9843C249.769 53.4031 250.815 53.7173 252.07 54.0314C252.384 54.1361 252.698 54.1361 253.012 54.2408C257.509 55.1832 261.798 57.1728 265.772 60.1047C267.864 61.466 269.747 63.2461 271.525 65.2356ZM282.089 29.1099C281.566 30.4712 280.834 31.7278 279.788 33.089C278.951 34.2408 277.905 35.3927 276.859 36.4398C273.512 39.6859 270.165 42.0942 266.4 43.8743C263.157 45.3403 260.019 46.2827 256.777 46.4921C256.15 46.4921 255.522 46.5969 254.79 46.5969H254.058C253.012 46.5969 251.966 46.3874 250.92 45.8639C248.096 44.6073 246.004 42.6178 244.644 39.7906C244.017 38.534 243.807 37.2775 243.703 36.0209V35.0785C243.703 32.6702 244.121 30.2618 244.958 27.644C245.795 25.0262 246.945 22.4084 248.514 20C250.397 16.9634 252.698 14.2408 255.313 11.8325C256.568 10.7853 257.718 9.84293 259.078 9.10995C259.915 8.58639 260.856 8.16754 261.693 7.8534C263.053 7.32984 264.308 7.12042 265.668 7.12042C267.132 7.12042 268.492 7.43456 269.956 7.95812C271.106 8.37696 272.152 9.00524 273.198 9.63351C276.127 11.623 278.533 14.0314 280.52 16.9634C281.147 17.9058 281.775 18.9529 282.193 20.1047C283.344 23.2461 283.344 26.178 282.089 29.1099Z" fill="url(#paint0_linear_35_1032)"/>
<defs>
<linearGradient id="paint0_linear_35_1032" x1="0" y1="50.0607" x2="290.184" y2="50.0607" gradientUnits="userSpaceOnUse">
<stop stop-color="#5A5AAA"/>
<stop offset="1" stop-color="#FB5E81"/>
</linearGradient>
</defs>
</svg>
