<svg width="695" height="100" viewBox="0 0 695 100" fill="none" xmlns="http://www.w3.org/2000/svg">
<path fill-rule="evenodd" clip-rule="evenodd" d="M0 0.00177239V99.9982H21.9309V31.0881L69.5714 86.9144H80.0012L127.642 31.0881V100H217.729V83.3437H190.386L231.258 20.3804L282.941 99.9982H337.311V18.2303H402.625C403.82 18.2321 405.002 18.4751 406.101 18.9446C408.256 19.8738 409.974 21.5899 410.905 23.742C411.375 24.8392 411.618 26.02 411.619 27.2134V35.5008C411.619 36.6945 411.376 37.8757 410.904 38.9723C410.674 39.5085 410.393 40.0181 410.067 40.4967C409.083 41.9418 407.707 43.0771 406.1 43.7696C405.002 44.2391 403.82 44.4821 402.625 44.4839H351.009V62.7143H414.91C426.635 62.7143 436.396 52.9654 436.396 41.2553V21.4598C436.396 20.3644 436.311 19.2859 436.147 18.2312H450.674V99.9991H477.012V18.2303H542.326C543.521 18.2298 544.703 18.4729 545.801 18.9446C547.956 19.8738 549.674 21.5898 550.605 23.742C551.075 24.8391 551.318 26.0199 551.32 27.2134V35.5008C551.32 36.6945 551.077 37.8758 550.605 38.9723C550.375 39.5085 550.093 40.0181 549.768 40.4967C548.784 41.9418 547.408 43.0771 545.801 43.7696C544.703 44.2391 543.521 44.4821 542.326 44.4839H490.71V62.7143H554.61C555.828 62.7143 557.024 62.6026 558.19 62.4014L532.643 99.9982H600.294V83.3437H572.95L613.822 20.3804L665.506 99.9982H695L627.052 0.00177239H600.592L576.096 36.0494V21.4598C576.096 9.74972 566.335 0.00177239 554.61 0.00177239H278.226V18.2321H310.972V83.3437H301.119L244.487 0H218.028L161.396 83.3437H149.573V0H127.642L74.7867 61.9406L21.9318 0.00177239H0Z" fill="#F0F0F0"/>
</svg>
