<svg width="270" height="101" viewBox="0 0 270 101" fill="none" xmlns="http://www.w3.org/2000/svg">
<path d="M17.3634 0.500081C16.5066 1.09799 16.409 2.45686 17.1357 3.41351C17.5369 3.91358 17.6345 5.16374 17.6345 8.80553C17.6345 13.4366 17.602 13.5996 16.8103 14.3932C15.9861 15.2194 15.8884 15.2194 12.0926 15.0564C9.97774 14.9911 7.53753 14.7955 6.68075 14.6976C5.16241 14.4693 5.09733 14.5019 4.76113 15.3934C4.02364 17.2849 5.74805 18.7416 7.59176 17.8828C8.05811 17.6871 10.1621 17.5241 12.5155 17.5241H16.6042L17.1357 18.5133C17.6996 19.6331 17.8623 25.623 17.2983 25.96C17.1031 26.0904 16.0728 25.6012 14.9883 24.8729C13.4699 23.851 12.5806 23.4814 11.0623 23.3183C7.36401 22.8835 4.95634 23.7206 2.54868 26.1992C0.726662 28.069 -0.0325121 30.0257 2.39199e-05 32.7326C0.0325599 36.6027 2.21247 39.5488 6.99527 42.1687C9.83675 43.7558 12.7433 46.2997 14.5219 48.8217C16.1054 51.072 18.4805 55.7031 20.4001 60.3667C21.0942 62.0191 21.7883 63.6063 21.951 63.9107C22.2438 64.5086 22.6776 65.6609 23.9032 69.1396C25.3564 73.4446 27.0375 81.0543 27.5689 85.8484C28.3281 93.0341 30.3778 96.6324 35.0305 98.9153C37.1128 99.9046 37.5357 100.002 40.4098 100.002C43.8152 99.9698 45.3986 99.535 47.9039 97.85C51.2009 95.5997 52.8927 92.0557 53.6194 85.6744C53.9773 82.5653 55.2353 75.847 55.9294 73.2706C58.0117 65.7261 63.7164 52.6592 66.7531 48.5499C68.7378 45.8322 73.0542 42.2991 75.4727 41.3642C76.9586 40.7989 79.594 38.092 80.364 36.2983C80.993 34.8416 81.0906 34.1459 80.9605 31.8956C80.8954 30.4388 80.6026 28.8843 80.3315 28.4168C79.5397 26.9927 77.2948 24.7424 76.0042 24.0793C73.2603 22.6552 68.9438 22.9922 66.2651 24.775C65.4733 25.3403 64.519 25.7643 64.1502 25.7643C63.5537 25.7643 63.5212 25.5034 63.5212 22.2856C63.5212 17.4915 63.5537 17.4915 68.8679 17.4915C71.178 17.4915 73.3579 17.6545 73.9869 17.8937C75.7656 18.5568 77.1538 17.2958 76.5247 15.6108C76.2319 14.752 76.0909 14.6867 74.5726 14.7846C73.6507 14.8498 71.1671 14.9477 69.0631 15.0455C65.2347 15.2086 65.1697 15.2086 64.3454 14.3824C63.5537 13.5888 63.5212 13.4257 63.5212 8.8925C63.5212 5.28333 63.6513 3.98968 64.0526 3.19609C65.0721 1.23931 63.5212 -0.706601 61.7425 0.282661C60.6905 0.847953 60.4519 1.8046 61.1135 3.06564C61.7751 4.29406 62.0354 12.1647 61.5148 13.5888C60.9834 14.9477 59.8012 15.2412 55.7342 15.0455C53.7495 14.9803 51.5045 14.8172 50.7454 14.6867C49.5524 14.4911 49.3246 14.5563 48.8583 15.252C47.7737 16.937 49.3897 18.6221 51.4286 17.9046C52.0251 17.6763 54.2376 17.5023 56.5151 17.5023H60.5387L61.1352 18.4916C62.0245 19.9157 62.1221 27.2319 61.3304 28.9495C59.9748 31.7651 53.576 36.3309 48.0232 38.3856C45.3119 39.3748 44.954 39.44 40.5616 39.44C36.2668 39.44 35.7463 39.3748 33.0349 38.4508C28.6751 36.9288 25.4432 34.9394 22.3414 31.8629L19.5976 29.1778V23.851C19.5976 19.383 19.6952 18.459 20.129 17.9915C20.5953 17.5241 21.322 17.4915 25.0202 17.5893C27.3954 17.6545 29.7705 17.8176 30.2694 17.9915C31.4298 18.3177 32.4818 17.4262 32.4818 16.1761C32.4818 14.8824 31.7552 14.3932 30.2694 14.6867C29.5753 14.8172 27.2652 14.9803 25.1178 15.089C19.3698 15.2847 19.6084 15.5564 19.6084 8.80553C19.6409 4.73978 19.7385 3.31567 20.1073 2.84822C20.6062 2.18509 20.4652 1.45673 19.6735 0.532694C19.0444 -0.152179 18.3178 -0.184792 17.3634 0.500081ZM63.4561 16.3174C63.326 17.2088 62.0354 17.4371 61.7425 16.6109C61.5799 16.2522 61.71 15.8826 62.0354 15.6217C62.7945 15.0998 63.5862 15.4586 63.4561 16.3174ZM19.4132 15.8282C19.7711 16.3935 19.218 17.1871 18.4588 17.1871C17.7647 17.1871 17.1031 16.1652 17.5695 15.7304C17.8623 15.426 19.218 15.4912 19.4132 15.8282ZM11.9516 26.1122C12.7108 26.4383 14.2942 27.6994 15.4872 28.8299L17.6345 30.9498V33.7328C17.602 35.5482 17.4393 36.8419 17.1357 37.3745C16.8754 37.842 16.6693 38.5378 16.6368 38.9291C16.6042 40.6467 19.142 41.3751 20.1073 39.8858C20.6062 39.1574 20.6062 38.9943 20.1398 38.0703C19.5433 36.9506 19.4132 34.7329 19.9446 34.7329C20.2374 34.7329 22.5909 38.0703 22.5909 38.5051C22.5909 38.5704 23.2199 39.7336 24.0116 41.0816C24.7708 42.4078 25.7902 44.2233 26.2241 45.1473C26.6904 46.0387 28.0352 47.7998 29.2282 48.9848C30.9418 50.7024 31.9395 51.3982 34.011 52.257C36.4837 53.3115 36.82 53.3767 40.5833 53.3767C44.3466 53.3767 44.672 53.3115 47.123 52.2896C50.6911 50.7676 53.5652 47.9194 55.6041 43.8863C57.9467 39.2552 60.6905 34.8851 61.3196 34.7873C62.1113 34.6242 62.0462 35.6787 61.1569 37.505C60.4953 38.9291 60.4628 39.0269 61.0267 39.8531C61.7859 41.0163 63.4669 40.9076 64.161 39.6575C64.5623 38.8965 64.5623 38.7008 64.096 37.7007C63.6947 36.9397 63.532 35.7439 63.532 33.7328V30.8193L65.7445 28.7647C69.3126 25.3947 71.4925 24.7968 74.6268 26.2535C78.824 28.2103 80.0712 33.5697 77.0995 36.8419C76.156 37.8311 73.9869 39.3531 73.423 39.3531C72.9241 39.3531 68.9005 41.3099 66.7206 42.5926C65.6686 43.2232 64.0418 44.4081 63.1524 45.2452C61.6016 46.6367 57.2417 51.9308 57.2417 52.4309C57.2417 52.5613 56.7428 53.4202 56.1247 54.3551C54.5087 56.8989 51.7323 62.1931 51.0057 64.2151C50.3116 66.1392 48.8908 70.7703 47.4701 75.597C46.776 78.043 46.3855 78.804 45.3552 79.7715C43.5115 81.5217 40.8978 82.087 38.3274 81.326C35.6161 80.4998 34.3364 78.6409 32.9807 73.4554C32.6553 72.2596 31.9938 70.0093 31.4624 68.4222C30.9309 66.8676 30.508 65.3783 30.508 65.15C30.508 64.5847 27.1459 57.9642 25.1287 54.5942C23.1114 51.2242 20.1724 47.278 18.4263 45.6256C16.1487 43.4732 11.4961 40.8315 6.9085 39.0704C2.28839 37.2876 1.03033 31.1998 4.53338 27.6559C6.70244 25.4925 9.34871 24.9272 11.9516 26.1122Z" fill="#F0F0F0"/>
<path d="M37.796 19.133C35.8439 19.9266 33.9351 21.5464 33.1434 23.1335C32.2215 24.9164 32.2215 28.9604 33.1108 30.678C35.1932 34.6459 39.8783 36.4396 43.7067 34.6785C48.3269 32.5913 50.0404 27.6994 47.7954 22.8944C46.8085 20.7093 42.9476 18.459 40.3013 18.5242C39.7157 18.5351 38.5877 18.8069 37.796 19.133ZM36.9393 24.7968C36.9393 25.3295 36.744 25.6556 36.3102 25.7208C35.5185 25.8839 35.0847 25.1555 35.486 24.3619C35.9523 23.5031 36.9393 23.7967 36.9393 24.7968ZM217.221 20.1331C215.378 21.3616 214.749 22.4813 214.716 24.5033C214.716 26.6883 215.378 27.7428 217.395 28.7756C218.555 29.4061 219.347 29.4387 228.251 29.4387C236.537 29.4387 237.827 29.5039 237.827 29.9388C237.827 30.1997 237.73 30.4388 237.567 30.4388C237.437 30.4388 236.841 30.8737 236.277 31.3955C235.257 32.3195 228.153 38.2442 224.162 41.4838C218.479 46.1148 216.863 47.4411 216.701 47.6368C216.603 47.7346 215.28 48.8652 213.762 50.1154C211.918 51.6373 210.79 52.8657 210.4 53.7572C209.64 55.4095 209.64 56.0727 210.4 57.7577C210.866 58.7796 211.387 59.3122 212.547 59.8775C214.922 60.9972 216.506 60.6385 219.282 58.2904C220.507 57.2359 222.156 55.877 222.98 55.2465C223.804 54.616 225.128 53.5289 225.952 52.8005C230.735 48.4956 233.153 47.2454 238.099 46.2779C246.027 44.7886 255.137 49.4849 258.369 56.7358C259.789 59.9754 260.115 61.5299 260.115 65.0087C260.115 68.4874 259.822 69.7049 258.065 73.4119C255.95 77.8799 249.974 82.1522 244.27 83.2067C240.246 83.9677 237.827 83.772 233.869 82.3479C230.897 81.2934 226.147 77.2494 223.436 73.5424C222.08 71.6182 220.659 70.7268 218.881 70.7268C215.28 70.6616 212.937 74.5643 214.586 77.8364C215.443 79.4562 218.783 83.4241 221.028 85.4462C229.151 92.8276 238.456 95.1431 248.727 92.2949C256.883 90.0772 263.78 84.2503 267.414 76.5754C271.112 68.8026 270.819 58.8013 266.687 51.3221C262.924 44.5712 257.078 39.8097 249.746 37.4941C248.098 36.9941 246.71 36.407 246.612 36.1679C246.547 35.9722 247.436 34.9721 248.662 34.0154C255.56 28.3951 256.948 26.7644 256.98 24.2532C256.98 22.9922 255.863 21.242 254.377 20.2527L253.26 19.4917H235.734C219.011 19.5026 218.154 19.5352 217.221 20.1331ZM91.8058 21.3833C89.691 22.0138 88.7691 23.3727 88.7691 25.8513C88.7691 28.0364 89.4958 29.2648 91.2744 30.1562C92.2939 30.7215 94.0183 30.7541 112.336 30.7541C132.704 30.7541 134.157 30.8193 135.578 32.0477C136.272 32.6457 137.128 34.4937 137.128 35.4613C137.128 36.9832 134.287 41.0163 133.202 41.0163C132.91 41.0163 131.717 40.5163 130.524 39.9292C122.834 35.9613 112.933 35.7222 105.2 39.3313C100.58 41.5164 96.4476 44.8538 93.5411 48.7674C89.9079 53.7354 87.6304 61.0081 88.0642 66.5089C88.5631 73.325 90.4718 78.3582 94.3653 83.2828C97.7274 87.5877 102.087 90.7295 107.304 92.6102C113.876 95.0235 123.246 94.7626 129.32 91.947C132.259 90.6208 135.925 88.1748 137.248 86.7181C137.974 85.9245 139.493 85.794 140.089 86.5224C140.317 86.7833 140.621 87.0224 140.751 87.0224C140.881 87.0224 142.768 88.0117 144.915 89.2401C148.277 91.1643 149.08 91.4578 150.49 91.4904C155.143 91.523 157.03 85.6962 153.299 82.7828C152.54 82.2175 151.412 81.5543 147.518 79.4127C146.792 79.0105 145.469 78.2495 144.547 77.7277C138.701 74.3142 134.808 72.4662 133.517 72.4662C131.836 72.4662 130.448 73.1293 129.558 74.3903C128.604 75.7818 128.398 76.8689 128.897 78.7931C129.331 80.4129 129.331 80.4781 128.539 81.1086C126.522 82.6632 123.55 83.7938 119.787 84.3808C113.084 85.4027 105.124 81.9348 101.295 76.2384C97.2068 70.2159 96.7404 63.8672 99.9398 57.2467C101.361 54.3007 105.449 50.1697 108.388 48.7456C112.683 46.6584 117.759 46.0931 122.053 47.1911C125.22 47.9847 125.557 48.3108 125.557 50.5285C125.557 52.2461 125.654 52.4852 126.88 53.6376C129.45 56.0836 131.37 55.7574 136.087 51.92C141.694 47.4194 145.631 42.5274 146.586 38.7878C146.987 37.2985 146.987 36.4396 146.683 34.1893C145.859 27.9711 142.562 23.8293 136.749 21.8181C134.634 21.0898 134.504 21.0572 113.974 21.0245C97.6515 20.9593 92.9988 21.0572 91.8058 21.3833ZM173.319 34.1567C170.944 35.5156 169.914 37.7007 170.641 39.8205C171.302 41.6686 172.289 42.5383 174.903 43.4949C176.193 43.995 177.549 44.4842 177.907 44.6581C178.265 44.8321 179.1 45.1256 179.718 45.3213C181.497 45.9192 185.954 47.5389 187.971 48.2999C191.236 49.5609 194.576 50.6154 195.303 50.6154C196.496 50.6154 198.665 49.3544 199.294 48.3325C199.619 47.7346 199.858 46.6801 199.858 45.5495C199.858 42.8644 198.632 41.5816 194.902 40.3532C194.435 40.1901 192.819 39.5922 191.268 39.0269C188.828 38.1029 185.195 36.8093 177.571 34.0915C175.131 33.2327 174.903 33.2327 173.319 34.1567Z" fill="#F0F0F0"/>
<path d="M147.204 49.0826C140.274 50.4741 135.545 57.225 136.706 64.0738C137.465 68.5091 139.97 71.8465 144.07 73.8686C146.087 74.8578 146.412 74.923 149.85 74.923C153.212 74.923 153.646 74.8578 155.663 73.9012C157.908 72.8467 160.088 70.8899 161.379 68.8353C163.591 65.3566 163.851 60.0297 162.073 56.388C160.056 52.3548 156.357 49.7023 151.77 48.9739C150.447 48.7782 149.362 48.6152 149.297 48.6478C149.221 48.6804 148.299 48.8543 147.204 49.0826ZM151.434 58.0512C153.245 58.8122 154.308 60.3015 154.308 62.0844C154.308 63.4432 154.145 63.7694 152.984 64.9C151.824 65.9544 151.434 66.161 150.143 66.161C148.256 66.161 146.976 65.4979 146.087 64.0738C144.731 61.8561 145.62 59.3449 148.137 58.2143C149.818 57.4207 149.948 57.4207 151.434 58.0512ZM169.328 53.2136C167.55 54.0072 166.357 56.0944 166.617 57.9751C166.812 59.4318 167.571 60.6276 168.96 61.6495C169.816 62.3127 170.38 62.3453 178.265 62.4431C184.599 62.5083 186.648 62.6388 186.648 62.9432C186.648 63.1715 185.065 64.6934 183.145 66.3132C181.193 67.9656 179.447 69.4549 179.252 69.618C178.688 70.1507 168.786 78.554 165.12 81.6305C163.342 83.1524 161.552 84.8374 161.227 85.4353C159.708 87.9139 160.902 91.3926 163.635 92.4471C165.717 93.2407 167.072 92.7406 170.5 90.0338C175.217 86.2615 179.154 84.87 182.516 85.7941C184.891 86.4246 185.954 87.0551 187.635 88.8379C192.158 93.6321 197.841 94.7953 203.816 92.1753C206.289 91.0882 209.066 87.8378 210.085 84.8265C211.343 81.2174 210.779 78.4018 208.502 77.0538C205.498 75.2057 202.168 76.8581 201.008 80.7608C200.606 82.1849 200.216 82.7828 199.457 83.272C197.906 84.2612 196.518 83.772 193.947 81.2826C191.735 79.1627 191.301 78.8692 188.568 77.4777C187.679 77.0429 186.985 76.5211 186.985 76.2819C186.985 75.9558 193.058 70.4877 195.563 68.607C197.114 67.4112 200.65 64.3347 202.526 62.4866C205.27 59.8341 205.855 56.9641 204.174 54.5725C202.754 52.5831 202.363 52.5505 185.716 52.5505C171.834 52.594 170.543 52.6592 169.328 53.2136Z" fill="#F0F0F0"/>
</svg>
