<svg width="171" height="100" viewBox="0 0 171 100" fill="none" xmlns="http://www.w3.org/2000/svg">
<path d="M0 5.66389L18.8683 0L27.4448 50.5569L53.0599 20.907L64.1903 47.3638L88.7381 11.2518L101.889 19.1204L62.6274 71.958L44.6359 48.3521L16.0857 78.3821L0 5.66389ZM109.017 24.2141L120.719 23.6667L117.742 74.6037L104.477 77.4774L109.017 24.2141ZM146.105 30.7142L133.031 27.9355L135.817 16.9879L171 22.9178L167.882 33.1432L155.341 31.5011L147.489 68.4114L136.016 68.5045L146.105 30.7142Z" fill="#28893A"/>
<path d="M14.1836 94.2349L17.5993 93.9243C17.8048 94.9965 18.2196 95.7835 18.8439 96.2854C19.4773 96.7872 20.3266 97.0382 21.3919 97.0382C22.5226 97.0382 23.372 96.8166 23.94 96.3735C24.5158 95.9231 24.8037 95.398 24.8037 94.7982C24.8037 94.4139 24.6812 94.0883 24.4363 93.8214C24.1991 93.5473 23.7803 93.311 23.1799 93.1128C22.7689 92.9796 21.8319 92.7434 20.3688 92.4041C18.4869 91.9683 17.1651 91.4322 16.4034 90.7957C15.3355 89.9022 14.8015 88.8116 14.8015 87.5239C14.8015 86.6965 15.0502 85.9242 15.5475 85.2069C16.0527 84.4823 16.7764 83.9315 17.7186 83.5545C18.6661 83.1775 19.8087 82.989 21.1462 82.989C23.3265 82.989 24.9623 83.4357 26.0538 84.3293C27.161 85.2228 27.742 86.4162 27.797 87.9095L24.2871 88.0538C24.1368 87.219 23.8123 86.6205 23.3134 86.2582C22.8239 85.8885 22.0845 85.7037 21.0951 85.7037C20.0743 85.7037 19.276 85.8996 18.7002 86.2912C18.3285 86.5434 18.1427 86.88 18.1427 87.301C18.1427 87.6854 18.3167 88.0146 18.6648 88.2888C19.1072 88.6364 20.1816 88.9987 21.8882 89.3757C23.5947 89.7527 24.855 90.1444 25.669 90.5508C26.4909 90.9498 27.1309 91.5006 27.5889 92.2032C28.0548 92.8984 28.2878 93.7601 28.2878 94.7883C28.2878 95.721 28.0116 96.5937 27.4594 97.4065C26.9071 98.2192 26.1245 98.8251 25.1115 99.2241C24.0986 99.6158 22.8383 99.8116 21.3307 99.8116C19.1321 99.8116 17.4438 99.3379 16.266 98.3905C15.0881 97.4358 14.3841 96.0527 14.1537 94.2412L14.1836 94.2349Z" fill="#F0F0F0"/>
<path d="M43.6295 99.743V86.2299H38.4863V83.4796H52.3062V86.2299H47.163V99.743H43.6295Z" fill="#F0F0F0"/>
<path d="M63.2602 83.2189H66.7701V92.0317C66.7701 93.4295 66.8136 94.3353 66.9005 94.749C67.0507 95.4149 67.4067 95.951 67.9684 96.3574C68.5363 96.7564 69.3111 96.9559 70.2926 96.9559C71.2899 96.9559 72.0411 96.7674 72.5462 96.3904C73.0514 96.0061 73.3563 95.5361 73.461 94.9804C73.5657 94.4247 73.6171 93.5042 73.6153 92.219V83.2225H77.1253V91.7784C77.1253 93.7294 77.0304 95.1125 76.8406 95.9277C76.6509 96.7429 76.2988 97.4235 75.7845 97.9694C75.2794 98.5226 74.6001 98.9657 73.7469 99.2987C72.8936 99.6243 71.7785 99.787 70.4018 99.787C68.7423 99.787 67.4821 99.6096 66.6209 99.2546C65.7676 98.8923 65.0924 98.4272 64.595 97.8592C64.0977 97.2815 63.7693 96.6793 63.6096 96.0526C63.3803 95.1224 63.2656 93.7515 63.2656 91.9399L63.2602 83.2189Z" fill="#F0F0F0"/>
<path d="M89.9578 83.2189H96.3574C97.8048 83.2189 98.9081 83.3224 99.6671 83.5295C100.688 83.811 101.561 84.3104 102.286 85.0277C103.014 85.745 103.567 86.625 103.947 87.6679C104.326 88.7034 104.516 89.9764 104.516 91.4868C104.516 92.8259 104.338 93.9789 103.982 94.9458C103.547 96.1282 102.927 97.0854 102.121 97.8174C101.511 98.3706 100.689 98.8027 99.6553 99.1136C98.8806 99.3427 97.8454 99.4573 96.5498 99.4573H89.9539L89.9578 83.2189ZM93.4678 85.9692V96.7282H96.0865C97.0654 96.7282 97.7734 96.6765 98.2105 96.5729C98.7785 96.4397 99.2483 96.2145 99.62 95.8973C99.9995 95.579 100.308 95.0576 100.547 94.333C100.784 93.601 100.902 92.6071 100.902 91.3513C100.902 90.0955 100.784 89.1309 100.547 88.4577C100.309 87.7845 99.977 87.2594 99.5493 86.8824C99.1227 86.5054 98.5809 86.2509 97.9239 86.1187C97.4345 86.0151 96.4739 85.9633 95.0422 85.9633L93.4678 85.9692Z" fill="#F0F0F0"/>
<path d="M116.655 99.743V83.3657H120.166V99.743H116.655Z" fill="#F0F0F0"/>
<path d="M131.967 91.6645C131.967 90.0023 132.229 88.6069 132.753 87.4784C133.143 86.6485 133.673 85.9031 134.343 85.2421C135.021 84.5812 135.761 84.0916 136.565 83.7733C137.633 83.3425 138.864 83.1271 140.259 83.1271C142.785 83.1271 144.801 83.8725 146.306 85.3633C147.826 86.8542 148.587 88.9227 148.587 91.569C148.587 94.2129 147.834 96.2815 146.329 97.7748C144.824 99.2583 142.809 100 140.283 100C137.734 100 135.705 99.2619 134.197 97.7858C132.692 96.3023 131.94 94.2582 131.94 91.6535L131.967 91.6645ZM135.536 91.5532C135.536 93.4015 135.985 94.8091 136.883 95.7761C137.781 96.7259 138.919 97.2008 140.299 97.2008C141.678 97.2008 142.809 96.7296 143.691 95.7871C144.581 94.8373 145.026 93.4174 145.026 91.5275C145.026 89.6573 144.593 88.2619 143.726 87.3414C142.868 86.421 141.725 85.9608 140.299 85.9608C138.872 85.9608 137.722 86.4283 136.848 87.3635C135.973 88.2913 135.536 89.6989 135.536 91.5863V91.5532Z" fill="#F0F0F0"/>
</svg>
