<svg width="20" height="24" viewBox="0 0 20 24" fill="none" xmlns="http://www.w3.org/2000/svg">
<path d="M19.5104 14.9067L11.177 23.4954C10.854 23.8336 10.427 24 9.99987 24C9.57278 24 9.14673 23.8323 8.82173 23.4968L0.488288 14.9081C-0.162763 14.2371 -0.162763 13.1501 0.488288 12.4791C1.13934 11.8081 2.19404 11.8081 2.84509 12.4791L8.33318 18.1382V1.66943C8.33318 0.719839 9.07954 0 9.95299 0C10.8264 0 11.6666 0.719839 11.6666 1.66943V18.1382L17.1562 12.4804C17.8073 11.8094 18.862 11.8094 19.513 12.4804C20.1641 13.1514 20.1615 14.2357 19.5104 14.9067Z" fill="#F0F0F0"/>
</svg>
