<svg width="20" height="20" viewBox="0 0 20 20" fill="none" xmlns="http://www.w3.org/2000/svg">
<path d="M1.40583 1.40583C0 2.81167 0 5.0746 0 9.6V10.4C0 14.9254 0 17.1883 1.40583 18.5942C2.81167 20 5.0746 20 9.6 20H10.4C14.9254 20 17.1883 20 18.5942 18.5942C20 17.1883 20 14.9254 20 10.4V9.6C20 5.0746 20 2.81167 18.5942 1.40583C17.1883 0 14.9254 0 10.4 0H9.6C5.0746 0 2.81167 0 1.40583 1.40583ZM3.375 6.08335H5.65835C5.73335 9.9 7.41665 11.5167 8.75 11.85V6.08335H10.9V9.375C12.2167 9.23335 13.6 7.73335 14.0667 6.08335H16.2167C16.0408 6.93906 15.6902 7.74924 15.1869 8.46335C14.6836 9.17741 14.0384 9.77995 13.2917 10.2333C14.1254 10.6473 14.8619 11.2335 15.4523 11.9532C16.0427 12.6729 16.4737 13.5097 16.7167 14.4083H14.35C14.1319 13.6278 13.6881 12.929 13.0743 12.3997C12.4606 11.8705 11.7042 11.5343 10.9 11.4333V14.4083H10.6417C6.08335 14.4083 3.48333 11.2833 3.375 6.08335Z" fill="#F0F0F0"/>
</svg>
