<?xml version="1.0" encoding="utf-8"?>
<!-- Generator: Adobe Illustrator 24.3.0, SVG Export Plug-In . SVG Version: 6.00 Build 0)  -->
<svg version="1.1" xmlns="http://www.w3.org/2000/svg" xmlns:xlink="http://www.w3.org/1999/xlink" x="0px" y="0px"
	 viewBox="0 0 1024 1024" style="enable-background:new 0 0 1024 1024;" xml:space="preserve">
<style type="text/css">
	.st0{fill:#FFFFFF;}
</style>
<g id="Слой_2">
	<path class="st0" d="M758,148c-14.3-10.43-26.82-17.43-36-22c-7.82-3.9-13.2-6.04-20-7c-9.45-1.34-17.24,0.21-24,2
		c-24.31,6.42-43.13,17.92-61,29c0,0-12.05,7.47-29,21c-8.73,6.97-12.05,10.26-15,15c-6.18,9.94-6.76,19.85-7,25
		c-0.7,15.15,4.59,26.61,8,34c2.86,6.19,6.1,11.11,8,14c2.83,4.3,4.33,6.55,7,9c0.9,0.82,4.05,3.62,12,7c10.76,4.57,19.83,5.74,22,6
		c6.27,0.75,10.57,0.49,19,0c13.92-0.82,21.55-2.93,25-4c6.79-2.1,9.5-3.88,11-5c4.79-3.58,7.25-7.86,9-11c1.49-2.67,0.76-1.98,6-16
		c3.06-8.19,4.59-12.28,5-13c1.03-1.82,1.91-3.04,2-5c0.15-3.25-1.96-6.11-5-9c-5.15-4.9-8.67-5.79-18-11c-0.62-0.35-6.66-3.74-14-9
		c-4.76-3.41-7.75-5.94-10-10c-1.12-2.01-2.89-5.31-2-9c0.25-1.06,0.78-2.37,3-5c3.45-4.09,6.89-6.5,9-8c3.7-2.62,7.28-5.41,11-8
		c14.66-10.22,14.42-10.21,16-11c6.38-3.19,11.73-4.02,18-5c2.45-0.38,13.04-1.92,27,0C740.97,142.82,748.97,144.47,758,148z"/>
</g>
<g id="Слой_3">
	<path class="st0" d="M556,230c-1.89-9.56-1.6-17.59-1-23c0.62-5.6,1.69-14.41,7-24c3.19-5.76,6.51-9.28,12-15
		c7.93-8.27,14.99-13.58,21-18c4.9-3.61,11.61-8.21,20-13c-3.21-2.71-7.59-6.21-13-10c-2.71-1.89-12.5-8.63-30-17
		c-17.09-8.17-25.64-12.26-36-13c-10.79-0.77-19.01,1.44-21,2c-6.34,1.79-10.65,4.22-19,9c-5.17,2.96-12.11,7.22-20,13
		c3.43-1.25,8.19-2.78,14-4c5.92-1.24,12.41-2.6,21-2c8.65,0.6,15.15,2.88,18,4c4.75,1.86,7.78,3.75,13,7c5.56,3.47,3.4,2.72,18,14
		c3.46,2.67,5.56,4.24,6,7c0.35,2.23-0.46,4.7-4,9c-7.42,9.02-16.72,13.85-19,15c-7.18,3.62-10.31,3.75-14,8
		c-1.31,1.51-4.17,4.81-4,9c0.03,0.64,0.12,1.26,2,7c0.99,3.02,1.48,4.54,2,6c2.53,7.16,3.8,10.75,5,13c1.44,2.69,3.9,7.3,9,11
		C547.76,228.46,552.71,229.6,556,230z"/>
</g>
<g id="Слой_4">
	<path class="st0" d="M371,456c7.33-17.67,14.67-35.33,22-53c48-18,96-36,144-54c2.24,4.1,6.51,10.38,14,15c1.35,0.83,3.25,2.01,6,3
		c2.31,0.83,13.92,4.65,24-2c5.16-3.41,7.49-8,9-11c5.16-10.25,3.9-20.4,3-25c85.33-31.33,170.67-62.67,256-94
		c-15,51.33-30,102.67-45,154c-2.76-3.04-7.99-7.94-16-11c-13.91-5.32-26.36-1.32-30,0c7-23.33,14-46.67,21-70
		C643,357.33,507,406.67,371,456z"/>
</g>
<g id="Слой_5">
	<path class="st0" d="M547,331c1.2,4.22,3.8,7.82,9,15c2.39,3.3,3.45,4.32,5,5c3.72,1.63,7.4,0.24,8,0c4.07-1.64,5.66-5.24,6-6
		c0.18-0.42,0.49-1.18,1-4c0.74-4.08,0.96-7.27,1-8c0.36-6.04,0.07-10.95,0-12c-0.2-3.2-0.81-12.94-3-22
		c-5.91-24.42-22.81-41.81-24-43c-5.41-5.44-13.66-13.56-27-18c-4.7-1.56-9.42-2.47-17-3c-9.37-0.66-26.98-1.03-59,6
		c-17.44,3.83-26.17,5.74-37,10c-6.45,2.54-16.63,6.02-37,13c-0.95,0.33-4.38,1.48-9,2c-2.65,0.3-5.07,0.57-8,0
		c-4.21-0.82-4.53-2.42-9-4c-2.12-0.75-6.79-2.4-12-1c-4.91,1.32-7.87,4.69-9,6c-3.09,3.6-2.54,5.54-6,12c-1.89,3.52-3.36,6.27-6,9
		c-3.63,3.76-6.28,4.18-15,9c-4.39,2.42-5.36,3.23-10,6c-13.03,7.79-28.16,15.11-32,17c-9.42,4.65-20.94,12.43-44,28
		c-21.01,14.19-34.15,23.11-51,37c-7.26,5.98-14.51,12.99-29,27c-11.55,11.17-18.53,18.43-22,30c-2.08,6.95-2.07,12.69-2,15
		c0.4,12.47,5.77,21.11,7,23c3.08,4.76,6.4,7.75,10,11c2.95,2.66,6.11,5.47,11,8c3.21,1.66,6.83,3.53,12,4c1.26,0.12,6.75,0.52,13-2
		c1.8-0.73,3.27-1.54,12-8c3.87-2.86,5.81-4.28,8-6c10.03-7.86,19-15.64,23-19c5.82-4.89,14.43-11.63,26-19c0.64,0.37,1.48,0.99,2,2
		c1.64,3.16-1.13,7.58-2,9c-7.52,12.36-17,39.32-19,45c-1.99,5.65-1.55,5.44-6,19c-2.96,9.01-3.94,11.51-6,18
		c-1.11,3.5-3.61,11.44-6,21c-4.99,19.98-7.49,29.97-9,38c-0.3,1.6-0.87,4.71-3,8c-3.17,4.9-7.8,7.13-12,9
		c-13.95,6.21-21.02,7.57-34,13c-2.8,1.17-6.59,2.83-11,5c-5.96,2.93-13.43,6.6-21,12c-9.88,7.05-15.24,13.38-20,19
		c-2.89,3.41-4.19,5.33-5,8c-2.28,7.57,1.36,14.75,3,18c3.19,6.31,7.62,10.04,10,12c1.71,1.41,4.81,3.28,11,7
		c5.22,3.14,6.45,3.65,8,4c4.58,1.02,8.47-0.18,11-1c4.45-1.44,7.16-3.44,12-7c5-3.67,10.07-7.24,15-11c4.14-3.16,10.24-7.69,18-13
		c0.67,1.33,1.33,2.67,2,4c0,7.67,0,15.33,0,23c0,6,0,12,0,18c1.02,10.96,3.62,19.74,6,26c3.67,9.64,7.94,16.22,13,24
		c2.36,3.64,7.79,11.7,16,21c4.5,5.09,8.13,9.21,14,14c8.13,6.63,15.01,10.04,17,11c7.06,3.4,12.35,4.64,14,5c0,0,8.76,1.93,16,0
		c1.2-0.32,2.64-0.82,4-2c0.71-0.61,2.64-2.24,3-5c0.28-2.2-0.74-3.91-2-6c-0.86-1.44-4.89-8.31-6-10c-3.3-5.04-4.81-9.51-6-13
		c-2.46-7.23-2.77-13.16-3-18c-0.32-6.95,0.45-12.73,2-24c1.02-7.37,2.01-12.91,4-24c1.12-6.22,2.26-12.54,4-21
		c1.52-7.35,2.42-11.75,4-18c1.87-7.43,3.83-14.03,5-18c1.54-5.2,1.66-5.35,3-10c2.22-7.7,3.34-11.63,4-16c1.07-7.06-0.04-6.83,1-11
		c1.89-7.59,6.64-12.58,9-15c5.44-5.59,11.02-7.99,18-11c6.72-2.9,9.14-3.01,18-6c24.05-8.12,17.41-7.45,20-8
		c0.61-0.13,2.48-0.49,4-2c1.56-1.55,1.92-3.48,2-4c0.11-0.71,0.38-3.19-3-8c-2.43-3.46-4.92-5.5-8-8c-3.65-2.96-5.66-4.59-9-6
		c-2.57-1.09-5.39-2.28-9-2c-3.64,0.28-4.57,1.78-8,2c-3.35,0.22-6.16-0.97-8-2c0.33-1.67,0.67-3.33,1-5c1.95-3.4,4.81-8.57,8-15
		c5.83-11.78,8.69-19.61,14-33c8.03-20.23,7.49-17.41,14-34c6.7-17.07,8.19-22.4,14-38c12.8-34.36,16.49-36.23,19-47
		c0.24-1.03,2.11-9.15,7-18c1.66-3,2.88-4.67,4-6c1.16-1.38,5.09-5.82,12-9c3.67-1.69,5.78-1.92,10-3c8.27-2.12,10.14-3.79,19-7
		c7.65-2.77,6.89-1.75,26-7c10.59-2.91,10.04-3,21-6c15.77-4.32,13.42-3.18,23-6c0,0,12.3-3.62,23-6c0,0,2.15-0.48,6-1
		c6.79-0.92,9.23-0.53,11,0c1.29,0.39,2.68,0.82,4,2C546.03,326.82,546.47,329.11,547,331z"/>
</g>
<g id="Слой_6">
	<path class="st0" d="M154,605c-38-25-76-50-114-75c25-9,50-18,75-27c1.26,1.62,3.21,3.84,6,6c3.25,2.52,6.13,3.77,9,5
		c5.96,2.55,10.96,3.61,13,4c7.53,1.44,15.28,2.92,24,0c3.42-1.15,7.32-4.14,15-10c6.36-4.85,11.48-9.05,15-12c-3,9.33-6,18.67-9,28
		c-15.33,5.67-30.67,11.33-46,17c11.67,7.33,23.33,14.67,35,22c-3,12-6,24-9,36C163.33,601,158.67,603,154,605z"/>
</g>
<g id="Слой_7">
	<path class="st0" d="M286,692c2.85-7.01,5.72-15.39,8-25c2.19-9.23,3.38-17.68,4-25c16.67,11,33.33,22,50,33
		c-0.07,2.37-0.13,5.83,0,10c0.2,6.72,0.52,15.81,3,26c1.82,7.5,2.87,11.8,6,17c7.55,12.55,19.57,17.61,23,19
		c5.76,2.33,10.64,3,18,4c7.52,1.03,13.28,1.02,17,1c6.85-0.03,10.27-0.05,13-1c2.59-0.9,9.01-3.77,14-14
		c58.67,38.67,117.33,77.33,176,116c16.33-54.67,32.67-109.33,49-164c2.68,0.67,7.89,1.59,14,0c1.51-0.39,12.66-3.46,17-13
		c5.25-11.53-2.25-24.96-10-31c-1.17-0.91-2.23-1.56-3-2c0-0.33,0-0.67,0-1c-0.67-2-1.33-4-2-6c1.07-2.59,2.13-5.6,3-9
		c1.25-4.88,1.8-9.31,2-13c4.42,4.05,7.76,7.55,10,10c3.31,3.62,4.49,5.26,7,7c3.6,2.5,7.08,3.09,12,4c3.39,0.63,8.17,1.22,14,1
		c-28.67,97.33-57.33,194.67-86,292C525.33,849.33,405.67,770.67,286,692z"/>
</g>
<g id="Слой_8">
	<path class="st0" d="M474,603c3.47,3.6,8.67,8.57,15,13c6.05,4.24,13.22,8.05,14.85,8.92c0.1,0.05,0.15,0.08,0.15,0.08
		c-0.1,2.28-1.21,26.89-3,42c-0.21,1.77-0.64,5.05-3,8c-2.98,3.73-7.32,4.75-13,6c-6.38,1.41-11.02,2.43-17,1
		c-7.45-1.79-12.14-6.22-15-9c-4.59-4.45-7.14-9.01-10-15c-2.35-4.94-6.73-14.67-12-32c-5.01-16.46-7.51-24.69-8-32
		c-0.27-4.03-0.51-11.85-2-12c-0.53-0.05-1.08,0.86-2,3c-2.98,6.94-3.85,12.94-4,14c-2.04,14.07-1.26,5.87-2,13
		c-1.64,15.82-2.46,23.73-3,33c-1.19,20.38,0.09,15.39-1,35c-0.44,7.95-1.11,16.97,2,27c1.54,4.98,2.95,9.33,7,12
		c3.19,2.1,6.44,2.13,8,5c1.17,2.15,0.98,5.08,0,7c-3.58,7.04-20.63,6.34-32,3c-5-1.47-13.65-4.01-20-12c-3.94-4.96-5.51-10.14-7-18
		c-3.89-20.48-3.1-37.14-3-39c1.62-30.36,5-51,5-51c6.57-37.1,13.61-64.07,16-72c4.3-14.27,8.59-26.16,12-35c0.23-0.24,0.57-0.6,1-1
		c0,0,2.76-2.59,6-4c2.68-1.17,5.85-0.62,12,1c9.67,2.55,14.5,3.83,18,6c5.23,3.24,8.45,6.99,10,9c2.35,3.04,5.54,7.19,6,13
		c0.23,2.87-0.4,3.75-1,8c-0.74,5.26-0.48,8.98,0,16c0.65,9.43,1.01,14.18,3,20c1.46,4.26,4.45,11,11,18c1.07,4.45,2.08,9.12,3,14
		c0.61,3.24,0.89,5.22,2,12c0.83,5.09,1.53,9.24,2,12c0.37,0.08,0.7,0.08,1,0C475.69,629.8,474.6,610.85,474,603z"/>
</g>
<g id="Слой_9">
	<path class="st0" d="M521,561c7.77-0.64,13.88-1.94,18-3c5.43-1.4,10.91-3.33,13-4c8.48-2.71,11.08-4.41,16-5
		c2.06-0.25,3.71-0.5,7-1c4.09-0.62,4.52-0.76,5-1c2.35-1.18,3.3-3.57,5-9c2.05-6.52,3.44-11.88,4-14c0.53-2.03-0.25,1.01,3-11
		c2.57-9.49,3.86-14.25,4-15c0.95-5.08,0.58-5.8,2-18c0.39-3.37,0.75-6.14,1-8c-1.77,0.94-4.19,2.28-7,4c-9.74,5.96-16.6,11.9-20,15
		c-6.74,6.16-11.16,11.52-14,15c-4.5,5.51-5.87,7.94-14,19c-5.01,6.81-6.07,8.02-7.66,10.16c0,0-0.68,0.92-1.34,1.84
		c-1.47,2.06-7,11.63-14,25c-3.2-2.07-55.22-35.84-54-40c0.12-0.41,0.29-0.93,0.29-0.93c0.97-2.93,2.12-5.02,2.71-6.07
		c4.45-7.98,6.67-11.97,8-14c4.3-6.59,8-11.42,10-14c7.05-9.11,11.99-15.5,21-26c13.29-15.48,20.14-23.38,30-31
		c5.96-4.61,10.96-7.66,17-10c3.13-1.21,9.98-3.55,19-4c3.42-0.17,15.94-0.5,30,6c11.55,5.34,18.19,12.54,26,21
		c6.44,6.98,12.41,13.46,17,24c5.08,11.67,5.62,21.81,6,29c0.57,10.74,0.99,18.49-2,28c-0.86,2.75-3.9,13.35-4,22
		c-0.03,2.55-0.04,5.02,1,8c1.04,2.99,2.29,4.1,3,7c0.49,2,1.11,4.58,0,7c-0.89,1.94-2.2,2.24-6,5c-3.27,2.37-5.31,3.85-7,6
		c-1.27,1.62-2,3.17-4,10c-1.75,5.97-2.03,7.63-3,11c-1.61,5.58-2.47,6.72-6,16c-2.24,5.89-2.3,6.5-5,14c0,0-3.3,9.14-8,21
		c-8.26,20.84-11.97,24.05-22,48c-5.24,12.52-11.91,24.42-17,37c0,0-1.73,4.28-7,11c-0.44,0.56-0.9,0.92-1,1
		c-0.67,0.51-1.29,0.75-2,1c-1.24,0.44-2.45,0.87-3,1c-3.27,0.77-9-3-9-3c-5.89-3.87-8.84-5.81-12-9c-6.28-6.34-9.31-12.55-10-14
		c-1.35-2.84-3.31-7.07-4-13c-0.72-6.2,0.33-11.02,1-14c1.01-4.45,1.84-5.24,5-14c2.37-6.56,2.07-6.59,4-12
		c3.25-9.08,4.06-8.92,8-19c3.53-9.04,3.7-11.28,7-18c1.56-3.17,3.52-5,5-9c1.62-4.37,1.97-8.32,2-11c-2.82,0.51-6.96,1.24-12,2
		c-8.67,1.31-13.01,1.97-17,2c-8.7,0.07-15.31-2.28-20-4c-15.65-5.73-25.21-15.77-31-22c-7.27-7.82-13.63-14.65-17-26
		c-3.82-12.88-1.68-24.12,0-30c1.39-4.87,6.46-22.59,16-25C488.69,508.05,506.54,528.2,521,561z"/>
	<path class="st0" d="M440,477"/>
</g>
<g id="Слой_10">
	<path class="st0" d="M624,651c0.92,2.09,2.47,5,5,8c4.26,5.04,8.92,7.45,12,9c7.65,3.86,14.49,4.57,19,5c3.2,0.3,7.19,0.73,12,0
		c6.7-1.02,8.39-3.09,9-4c0.31-0.47,1.69-2.54,1-5c-0.23-0.84-0.77-1.48-4-4c-2.53-1.97-3.08-2.24-4-3c-2.66-2.19-3.91-4.77-5-7
		c-2.4-4.93-2.85-9.43-3-11c-1.97-21.27-1-44-1-44c0.46-10.79,0.89-17.38,1-19c0.8-12.04,1.12-18.18,2-24c0.68-4.49,0.96-5.12,3-17
		c0.69-4,1.49-7.98,2-12c0.05-0.37,0.18-1.49,1-2c0.55-0.34,1.35-0.37,2,0c0.79,0.46,0.93,1.51,1,2c0.5,3.68,0.74,9.45,1,12
		c0.1,0.99,0.4,2.33,1,5c0.7,3.14,1.84,8.19,4,15c2.66,8.41,3.21,7.95,7,19c1.85,5.4,1.92,6.08,4,12c2.46,6.99,3.69,10.49,5,13
		c1.62,3.11,4.72,8.91,11,14c3.06,2.48,7.48,6.07,14,7c0.75,0.11,4.5-0.26,12-1c6.46-0.64,9.55-1.03,13-3c1.36-0.78,2.73-1.49,4-3
		c1.87-2.22,2.28-4.58,3-9c0.58-3.54,0.36-4.32,1-9c0.43-3.13,0.88-5.34,1-6c1.9-10.11,2.92-41.52,3-44c0.57-17.03,2.14-29.97,3-37
		c1.27-10.39,2.89-23.34,7-40c3.09-12.54,9.44-34.65,22-60c0.41-0.83,0.76-1.53,1-2c0.15-0.82,0.1-1.49,0-2c-0.11-0.55-0.61-2.4-5-5
		c-2.37-1.4-4.18-1.97-7-3c-1.81-0.66-4.57-1.68-8-3c-5.61-0.86-10.08-0.48-13,0c-3.47,0.57-4.95,1.3-6,2c-3.12,2.1-4.34,5.28-5,7
		c-7.22,18.76-6.68,14.45-9,23c-1.43,5.27-2.29,9.51-4,18c-1.83,9.09-3.02,14.96-4,22c-1.13,8.11-1.43,14.19-2,26
		c-0.65,13.52-0.84,25.05-1,35c-0.15,8.96-0.19,16.22-1,27c-0.11,1.51,1.32,6.33-1,11c-0.92,1.86-2.11,3.17-3,4
		c-0.41-2.72-1.08-6.9-2-12c-1.34-7.41-2.54-12.87-3-15c-6.02-27.74-10-49-10-49c-1.29-6.89-2.4-13.2-5-22
		c-3.92-13.27-6.82-17.27-10-20c-5.18-4.45-11.27-5.64-15-6c-6-1.67-12-3.33-18-5c-1.22-0.14-3.57-0.23-6,1
		c-5.5,2.79-5.98,9.61-6,10c1.85,2.11,4.52,5.46,7,10c1.19,2.18,5.59,10.56,7,25c2.41,24.74-4.93,57.35-6,62
		c1.4,2.56,3.06,6.28,4,11c0.98,4.93,2.1,9.97,0,15c-3.29,7.9-12.21,10.51-14,11C640,606.33,632,628.67,624,651z"/>
</g>
<g id="Слой_11">
	<path class="st0" d="M845,377c4.12-2.81,6.02-5.76,7-8c1.7-3.89,1.53-7.78,5-12c0.78-0.95,1.21-1.47,2-2c3.34-2.25,6.7-0.41,11-1
		c3.19-0.44,5.09-1.97,8-4c12.58-8.8,29.07-16.65,34-19c9.71-4.62,14.11-5.62,18-6c2.56-0.25,7.83-0.72,14,1
		c16.26,4.54,23.19,19.98,25,24c0,0,3.57,7.95,2,16c-0.07,0.34-0.25,1.27-1,2c-1.08,1.05-2.66,1.01-3,1c-1.37-0.04-2.79-0.69-6-4
		c-3.85-3.98-4.05-5.35-6-6c-2.32-0.77-4.62,0.32-6,1c-14.87,7.3-22.19,11.16-29,16c-5.32,3.78-13.28,8.91-24,14
		c-0.53,0.91-1.27,2.28-2,4c-2.7,6.35-2.85,11.81-3,15c-0.3,6.36-1.49,12.65-2,19c-2.59,32.56-5.83,45.55-7,50
		c-0.8,3.03-1.53,5.47-2,7c0.18,0.35,0.49,0.78,1,1c1.41,0.6,2.91-1.13,5-2c2.56-1.07,5.05-0.47,7,0c2.28,0.55,6.59,1.49,8,5
		c0.8,1.98,0.34,3.95,0,5c-7.33,5.65-11.96,8.47-15,10c-0.72,0.36-2.44,1.2-4,3c-1.95,2.26-2.53,4.74-3,7c-1.87,8.94-2,12-2,12
		c0,15.87-0.94,23.79,0,35c0.49,5.87,1.36,13.74,3,23c0.02,0.08,0.49,1.59,2,2c1.29,0.35,2.55-0.66,3-1c2.08-1.56,6.73-4.09,15-8
		c3.57-1.69,10.49-5.18,25-11c18.09-7.26,19-6.21,26-9c0.53-0.21,1.99-0.8,4-1c1.48-0.15,3.51-0.11,7,1c5.18,1.65,8.81,4.15,10,5
		c2.34,1.68,5.43,3.94,8,8c2.59,4.08,2.93,7.27,3,8c0.16,1.73,0.34,3.97-1,6c-1.01,1.53-2.4,2.23-4,3c-3.38,1.63-6.38,1.94-7,2
		c-4.69,0.48-9.3,1.62-14,2c-5.26,0.42-10.84,2.61-22,7c-9.51,3.73-18.52,7.28-29,14c-9.85,6.32-16,11-16,11
		c-3.24,2.46-6.68,4.65-10,7c-3.54,2.51-4.8,3.44-7,4c-4.37,1.11-8.17-0.31-10-1c-2.44-0.92-9.52-3.57-11-10
		c-0.79-3.45,0.35-6.59,1-8c0.97-2.11,2.22-3.21,4-5c1.99-1.99,4.78-4.97,8-9c0-0.33,0-0.67,0-1c-5.21-5.1-9.76-8.66-13-11
		c-2.95-2.13-4.87-3.28-7-6c-2.1-2.68-3.11-5.23-5-10c-1-2.51-2.07-5.22-3-9c-0.66-2.67-1.43-5.31-2-8c-0.57-2.71-0.89-4.74-2-5
		c-0.41-0.09-0.89,0.06-2,1c-2.01,1.71-2.87,3.33-4,5c-1.91,2.83-2.13,2.2-4,5c-1.97,2.94-1.74,3.65-3,5c-2.2,2.34-5.3,2.77-7,3
		c-6.54,0.89-14.18-2.3-17-8c-0.67-1.34-0.91-2.53-1-3c-0.5-2.73-0.07-6.13,3-11c0.79-1.25,3.92-6.04,12-12
		c3.04-2.24,13.86-9.87,18-13c0.37-0.28,1.2-0.92,2-2c1.62-2.2,1.88-4.6,2-6c0.37-4.41,0.56-6.61,0-10c-0.63-3.8-0.08-4.76,2-25
		c1.47-14.27,1.65-16.6,2-21c0.5-6.31,0.81-11.51,1-15c-0.25-0.07-0.62-0.13-1,0c-0.62,0.22-0.92,0.84-1,1c-1.18,2.32-3.49,3.88-5,6
		c-4.71,6.59-3.01,3.83-8,11c-5.87,8.42-6.86,10.28-10,12c-1.11,0.6-3.61,1.94-7,2c-4.33,0.08-7.31-1.97-13-6
		c-4.73-3.35-7.11-5.08-8-8c-0.43-1.4-0.63-3.27,1-9c2.3-8.08,5-13,5-13c5.29-9.63,12.1-18.16,16-23c19.24-23.86,25.67-29.7,31-34
		C840.25,380.38,843.06,378.35,845,377z"/>
</g>
</svg>
