<svg width="44" height="40" viewBox="0 0 44 40" fill="none" xmlns="http://www.w3.org/2000/svg">
<path d="M3.4914 0.549103V36.452H6.56214V40H0V0.549103H3.4914ZM19.1396 4.85744V35.1426C19.1396 38.3809 17.5692 40 14.4283 40H16.2792H13.7973C12.1147 40 10.9089 39.5706 10.1797 38.7117C9.45061 37.8529 9.08604 36.6631 9.08604 35.1426V4.85744C9.08604 3.30869 9.45061 2.11193 10.1797 1.26716C10.9089 0.422386 12.1147 0 13.7973 0H15.8585H14.4283C17.5692 0 19.1396 1.61915 19.1396 4.85744ZM15.6482 5.32207C15.6482 4.75889 15.536 4.31538 15.3117 3.99155C15.0873 3.66772 14.6807 3.50581 14.0918 3.50581C13.5029 3.50581 13.1033 3.66772 12.8929 3.99155C12.6826 4.31538 12.5774 4.75889 12.5774 5.32207V34.6779C12.5774 35.2411 12.6826 35.6846 12.8929 36.0084C13.1033 36.3323 13.5029 36.4942 14.0918 36.4942C14.6807 36.4942 15.0873 36.3323 15.3117 36.0084C15.536 35.6846 15.6482 35.2411 15.6482 34.6779V5.32207ZM31.5908 0.549103V40H28.0994V28.1732C28.0994 26.9342 27.9242 25.8993 27.5736 25.0686C27.2231 24.2379 26.4869 23.0482 25.3652 21.4995C24.2435 19.9507 23.4302 18.7258 22.9254 17.8247C22.4207 16.9236 22.0631 15.9944 21.8528 15.037C21.6424 14.0795 21.5373 12.8687 21.5373 11.4044V0.549103H25.0287V11.8268C25.0287 13.1785 25.1969 14.2837 25.5335 15.1426C25.87 16.0014 26.5991 17.2052 27.7208 18.754L28.0994 19.3031V0.549103H31.5908ZM33.9465 40L36.0076 0.549103H41.9388L44 40H40.761L40.3403 31.7635L39.7514 32.6082C39.0223 33.622 38.4895 34.4386 38.153 35.0581C37.8164 35.6776 37.5921 36.276 37.4799 36.8532C37.3677 37.4305 37.2836 38.2119 37.2275 39.1975L37.1855 40H33.9465ZM39.499 26.3147C39.7514 25.6107 39.8776 24.6111 39.8776 23.3157L38.9522 5.82893L37.7323 29.3559C38.6577 28.0324 39.2467 27.0187 39.499 26.3147Z" fill="#F0F0F0"/>
</svg>
